<svg xmlns="http://www.w3.org/2000/svg"  viewBox="0 0 24 24" width="24px" height="24px" baseProfile="basic"><circle cx="12" cy="12" r="10" fill="#4759d1"/><path fill="#add9ff" d="M13.35,10.59v0.63c0,0.44,0.36,0.8,0.8,0.8h1.26c0.496,0,0.874,0.442,0.798,0.932l-0.159,1.022	c-0.06,0.389-0.396,0.676-0.789,0.676h-1.11c-0.44,0-0.8,0.36-0.8,0.8v3.568c0,0.755-0.507,0.966-0.903,0.995	c-0.14,0.01-0.27,0.009-0.447,0.009c-0.181,0-0.361-0.005-0.54-0.015c-0.537-0.03-0.96-0.469-0.959-1.007l0.009-3.55	c0.001-0.44-0.359-0.8-0.799-0.8H8.83c-0.44,0-0.8-0.36-0.8-0.8v-1.03c0-0.44,0.36-0.8,0.8-0.8h0.88c0.44,0,0.8-0.36,0.8-0.8v-0.95	c0-2.89,1.41-4.16,3.81-4.16c0.55,0,0.974,0.019,1.302,0.039c0.424,0.025,0.748,0.375,0.748,0.799l0,0.673	c0,0.543-0.358,0.899-0.8,0.899h-0.84C13.71,8.52,13.35,9.49,13.35,10.59z"/></svg>