<svg xmlns="http://www.w3.org/2000/svg"  viewBox="0 0 24 24" width="24px" height="24px" baseProfile="basic"><path fill="#4759d1" d="M21,5v14c0,1.1-0.9,2-2,2H5c-1.1,0-2-0.9-2-2V5c0-1.1,0.9-2,2-2h14C20.1,3,21,3.9,21,5z"/><path fill="#add9ff" d="M18,12.44V17c0,0.55-0.45,1-1,1s-1-0.45-1-1v-4.15c0-1.15-0.5-1.65-1.15-1.83	c-0.38-0.11-0.84-0.08-1.32,0.11C12.5,11.54,12,12.62,12,13.73V17c0,0.55-0.45,1-1,1s-1-0.45-1-1v-7c0-0.55,0.45-1,1-1	c0.25,0,0.48,0.1,0.65,0.25c0.26,0.24,0.61,0.33,0.92,0.17c1.06-0.51,2.12-0.55,2.94-0.33C17.02,9.51,18,10.83,18,12.44z"/><path fill="#add9ff" d="M8,10v7c0,0.55-0.45,1-1,1s-1-0.45-1-1v-7c0-0.55,0.45-1,1-1S8,9.45,8,10z"/><circle cx="7" cy="7" r="1" fill="#add9ff"/></svg>